<?xml version="1.0" encoding="utf-8"?><svg width="2250px" height="2250px" viewBox="0 0 5000 5000" xmlns="http://www.w3.org/2000/svg"><rect x="100px" y="100px" width="0px" height="0px" fill="rgba(255,255,255,0)" stroke="black" stroke-width="1.5px" /><rect x="100px" y="100px" width="0px" height="0px" fill="rgba(255,255,255,0)" stroke="black" stroke-width=".5px" /><line x1="100px" y1="100px" x2="100px" y2="70px" stroke="black" stroke-width=".5px" /><line x1="100px" y1="100px" x2="100px" y2="70px" stroke="black" stroke-width=".5px" /><line x1="100px" y1="75px" x2="150px" y2="75px" stroke="black" stroke-width=".5px" /><line x1="97px" y1="78px" x2="103px" y2="72px" stroke="black" stroke-width=".5px" /><line x1="97px" y1="78px" x2="103px" y2="72px" stroke="black" stroke-width=".5px" /><text x="100px" y="75px" font-size="25px" font-style="normal" font-weight="bold" text-orientation="mixed" color="black">М0x0</text><line x1="100px" y1="100px" x2="135px" y2="100px" stroke="black" stroke-width=".5px" /><line x1="100px" y1="100px" x2="135px" y2="100px" stroke="black" stroke-width=".5px" /><line x1="133px" y1="100px" x2="133px" y2="100px" stroke="black" stroke-width=".5px" /><line x1="130px" y1="103px" x2="136px" y2="97px" stroke="black" stroke-width=".5px" /><line x1="130px" y1="103px" x2="136px" y2="97px" stroke="black" stroke-width=".5px" /><text transform="rotate(-90 133,110)" x="133px" y="110px" font-size="25px" font-style="normal" font-weight="bold" text-orientation="mixed" color="black">0</text><line x1="97px" y1="130px" x2="143px" y2="130px" stroke="black" stroke-width=".5px" /><line x1="94px" y1="133px" x2="100px" y2="127px" stroke="black" stroke-width=".5px" /><line x1="100px" y1="133px" x2="106px" y2="127px" stroke="black" stroke-width=".5px" /><text x="108px" y="130px" font-size="25px" font-style="normal" font-weight="bold" text-orientation="mixed" color="black">d6</text><rect x="97px" y="100px" width="6px" height="0px" fill="rgba(255,255,255,0)" stroke="black" stroke-width="1px" /><line x1="103px" y1="100px" x2="173px" y2="100px" stroke="black" stroke-width=".5px" /><line x1="103px" y1="100px" x2="163px" y2="100px" stroke="black" stroke-width=".5px" /><line x1="158px" y1="100px" x2="158px" y2="100px" stroke="black" stroke-width=".5px" /><line x1="155px" y1="103px" x2="161px" y2="97px" stroke="black" stroke-width=".5px" /><line x1="155px" y1="103px" x2="161px" y2="97px" stroke="black" stroke-width=".5px" /><text transform="rotate(-90 158,110)" x="158px" y="110px" font-size="25px" font-style="normal" font-weight="bold" text-orientation="mixed" color="black">0</text></svg>